<svg width="32" height="32" viewBox="0 0 32 32" fill="none" xmlns="http://www.w3.org/2000/svg">
<path d="M10 16C10 16.5304 9.78929 17.0391 9.41421 17.4142C9.03914 17.7893 8.53043 18 8 18C7.46957 18 6.96086 17.7893 6.58579 17.4142C6.21071 17.0391 6 16.5304 6 16C6 15.4696 6.21071 14.9609 6.58579 14.5858C6.96086 14.2107 7.46957 14 8 14C8.53043 14 9.03914 14.2107 9.41421 14.5858C9.78929 14.9609 10 15.4696 10 16ZM18 16C18 16.5304 17.7893 17.0391 17.4142 17.4142C17.0391 17.7893 16.5304 18 16 18C15.4696 18 14.9609 17.7893 14.5858 17.4142C14.2107 17.0391 14 16.5304 14 16C14 15.4696 14.2107 14.9609 14.5858 14.5858C14.9609 14.2107 15.4696 14 16 14C16.5304 14 17.0391 14.2107 17.4142 14.5858C17.7893 14.9609 18 15.4696 18 16ZM24 18C24.5304 18 25.0391 17.7893 25.4142 17.4142C25.7893 17.0391 26 16.5304 26 16C26 15.4696 25.7893 14.9609 25.4142 14.5858C25.0391 14.2107 24.5304 14 24 14C23.4696 14 22.9609 14.2107 22.5858 14.5858C22.2107 14.9609 22 15.4696 22 16C22 16.5304 22.2107 17.0391 22.5858 17.4142C22.9609 17.7893 23.4696 18 24 18Z" fill="#39C0ED"/>
<path d="M10 16C10 16.5304 9.78929 17.0391 9.41421 17.4142C9.03914 17.7893 8.53043 18 8 18C7.46957 18 6.96086 17.7893 6.58579 17.4142C6.21071 17.0391 6 16.5304 6 16C6 15.4696 6.21071 14.9609 6.58579 14.5858C6.96086 14.2107 7.46957 14 8 14C8.53043 14 9.03914 14.2107 9.41421 14.5858C9.78929 14.9609 10 15.4696 10 16ZM18 16C18 16.5304 17.7893 17.0391 17.4142 17.4142C17.0391 17.7893 16.5304 18 16 18C15.4696 18 14.9609 17.7893 14.5858 17.4142C14.2107 17.0391 14 16.5304 14 16C14 15.4696 14.2107 14.9609 14.5858 14.5858C14.9609 14.2107 15.4696 14 16 14C16.5304 14 17.0391 14.2107 17.4142 14.5858C17.7893 14.9609 18 15.4696 18 16ZM24 18C24.5304 18 25.0391 17.7893 25.4142 17.4142C25.7893 17.0391 26 16.5304 26 16C26 15.4696 25.7893 14.9609 25.4142 14.5858C25.0391 14.2107 24.5304 14 24 14C23.4696 14 22.9609 14.2107 22.5858 14.5858C22.2107 14.9609 22 15.4696 22 16C22 16.5304 22.2107 17.0391 22.5858 17.4142C22.9609 17.7893 23.4696 18 24 18Z" fill="url(#paint0_linear_727_21468)" fill-opacity="0.2" style="mix-blend-mode:hard-light"/>
<path d="M4.33 31.606L4.37 31.598C8.03 30.872 10.266 29.914 11.306 29.388C12.8372 29.7964 14.4153 30.0021 16 30C24.836 30 32 23.732 32 16C32 8.268 24.836 2 16 2C7.164 2 0 8.268 0 16C0 19.52 1.486 22.74 3.94 25.2C3.76831 26.7802 3.4167 28.3356 2.892 29.836L2.886 29.858C2.73689 30.2877 2.57414 30.7126 2.398 31.132C2.24 31.504 2.546 31.92 2.944 31.856C3.40732 31.7802 3.86938 31.6968 4.33 31.606ZM5.93 25.39C5.95801 25.0972 5.9211 24.8018 5.82188 24.5249C5.72267 24.248 5.56359 23.9964 5.356 23.788C3.236 21.66 2 18.936 2 16C2 9.616 8.008 4 16 4C23.992 4 30 9.616 30 16C30 22.386 23.992 28 16 28C14.5902 28.0021 13.1862 27.8192 11.824 27.456C11.348 27.3284 10.8416 27.3811 10.402 27.604C9.628 27.996 7.922 28.744 5.134 29.39C5.52295 28.0843 5.78944 26.7452 5.93 25.39Z" fill="#39C0ED"/>
<path d="M4.33 31.606L4.37 31.598C8.03 30.872 10.266 29.914 11.306 29.388C12.8372 29.7964 14.4153 30.0021 16 30C24.836 30 32 23.732 32 16C32 8.268 24.836 2 16 2C7.164 2 0 8.268 0 16C0 19.52 1.486 22.74 3.94 25.2C3.76831 26.7802 3.4167 28.3356 2.892 29.836L2.886 29.858C2.73689 30.2877 2.57414 30.7126 2.398 31.132C2.24 31.504 2.546 31.92 2.944 31.856C3.40732 31.7802 3.86938 31.6968 4.33 31.606ZM5.93 25.39C5.95801 25.0972 5.9211 24.8018 5.82188 24.5249C5.72267 24.248 5.56359 23.9964 5.356 23.788C3.236 21.66 2 18.936 2 16C2 9.616 8.008 4 16 4C23.992 4 30 9.616 30 16C30 22.386 23.992 28 16 28C14.5902 28.0021 13.1862 27.8192 11.824 27.456C11.348 27.3284 10.8416 27.3811 10.402 27.604C9.628 27.996 7.922 28.744 5.134 29.39C5.52295 28.0843 5.78944 26.7452 5.93 25.39Z" fill="url(#paint1_linear_727_21468)" fill-opacity="0.2" style="mix-blend-mode:hard-light"/>
<defs>
<linearGradient id="paint0_linear_727_21468" x1="16" y1="14" x2="16" y2="18" gradientUnits="userSpaceOnUse">
<stop stop-color="white"/>
<stop offset="1" stop-color="white" stop-opacity="0"/>
</linearGradient>
<linearGradient id="paint1_linear_727_21468" x1="16" y1="2" x2="16" y2="31.8626" gradientUnits="userSpaceOnUse">
<stop stop-color="white"/>
<stop offset="1" stop-color="white" stop-opacity="0"/>
</linearGradient>
</defs>
</svg>
