<svg width="30" height="32" viewBox="0 0 30 32" fill="none" xmlns="http://www.w3.org/2000/svg">
<path d="M26.7453 13.0977H3.16632V24.6992C3.16632 29.0498 4.64 30.5 9.06105 30.5H20.8505C25.2716 30.5 26.7453 29.0498 26.7453 24.6992V13.0977ZM29 8.74715V10.1973C29 11.7925 28.2189 13.0977 26.0526 13.0977H3.94737C1.69263 13.0977 1 11.7925 1 10.1973V8.74715C1 7.15194 1.69263 5.84677 3.94737 5.84677H26.0526C28.2189 5.84677 29 7.15194 29 8.74715ZM14.4695 5.84677H6.33474C6.09242 5.58814 5.9616 5.24704 5.96985 4.89535C5.9781 4.54367 6.12477 4.20887 6.37895 3.96152L8.47158 1.90225C8.73642 1.64454 9.09386 1.5 9.46632 1.5C9.83877 1.5 10.1962 1.64454 10.4611 1.90225L14.4695 5.84677ZM23.6505 5.84677H15.5158L19.5242 1.90225C19.7891 1.64454 20.1465 1.5 20.5189 1.5C20.8914 1.5 21.2488 1.64454 21.5137 1.90225L23.6063 3.96152C24.1368 4.48359 24.1516 5.3102 23.6505 5.84677Z" stroke="#DBA369" stroke-width="1.5" stroke-miterlimit="10" stroke-linecap="round" stroke-linejoin="round"/>
<path d="M10 13.5V21.0306C10 22.2027 11.3134 22.8913 12.3134 22.2613L13.7164 21.353C13.9601 21.1954 14.2455 21.1115 14.5373 21.1115C14.8291 21.1115 15.1145 21.1954 15.3582 21.353L16.6866 22.232C16.9107 22.3787 17.1712 22.4629 17.4403 22.4756C17.7094 22.4884 17.9769 22.4292 18.2144 22.3043C18.4519 22.1795 18.6504 21.9937 18.7887 21.7668C18.9271 21.5399 19.0001 21.2804 19 21.016V13.5H10Z" stroke="#DBA369" stroke-width="1.5" stroke-miterlimit="10" stroke-linecap="round" stroke-linejoin="round"/>
</svg>
