<svg width="34" height="34" viewBox="0 0 34 34" fill="none" xmlns="http://www.w3.org/2000/svg">
<path d="M27.625 17.6226V14.875H25.5V18.0625C25.5001 18.3443 25.612 18.6145 25.8113 18.8137L28.6875 21.6899V23.375H5.3125V21.6899L8.18869 18.8137C8.38796 18.6145 8.49994 18.3443 8.5 18.0625V13.8125C8.49704 12.3195 8.88813 10.8521 9.63378 9.55859C10.3794 8.26508 11.4532 7.19125 12.7467 6.44556C14.0402 5.69986 15.5075 5.30872 17.0006 5.31163C18.4936 5.31454 19.9594 5.7114 21.25 6.46212V4.08744C20.2386 3.63962 19.1629 3.35419 18.0625 3.24169V1.0625H15.9375V3.24062C13.318 3.50724 10.8904 4.73569 9.12408 6.68842C7.35779 8.64115 6.37829 11.1795 6.375 13.8125V17.6226L3.49881 20.4988C3.29954 20.698 3.18756 20.9682 3.1875 21.25V24.4375C3.1875 24.7193 3.29944 24.9895 3.4987 25.1888C3.69796 25.3881 3.96821 25.5 4.25 25.5H11.6875V26.5625C11.6875 27.9715 12.2472 29.3227 13.2435 30.319C14.2398 31.3153 15.591 31.875 17 31.875C18.409 31.875 19.7602 31.3153 20.7565 30.319C21.7528 29.3227 22.3125 27.9715 22.3125 26.5625V25.5H29.75C30.0318 25.5 30.302 25.3881 30.5013 25.1888C30.7006 24.9895 30.8125 24.7193 30.8125 24.4375V21.25C30.8124 20.9682 30.7005 20.698 30.5012 20.4988L27.625 17.6226ZM20.1875 26.5625C20.1875 27.4079 19.8517 28.2186 19.2539 28.8164C18.6561 29.4142 17.8454 29.75 17 29.75C16.1546 29.75 15.3439 29.4142 14.7461 28.8164C14.1483 28.2186 13.8125 27.4079 13.8125 26.5625V25.5H20.1875V26.5625Z" fill="#39C0ED"/>
<path d="M27.625 17.6226V14.875H25.5V18.0625C25.5001 18.3443 25.612 18.6145 25.8113 18.8137L28.6875 21.6899V23.375H5.3125V21.6899L8.18869 18.8137C8.38796 18.6145 8.49994 18.3443 8.5 18.0625V13.8125C8.49704 12.3195 8.88813 10.8521 9.63378 9.55859C10.3794 8.26508 11.4532 7.19125 12.7467 6.44556C14.0402 5.69986 15.5075 5.30872 17.0006 5.31163C18.4936 5.31454 19.9594 5.7114 21.25 6.46212V4.08744C20.2386 3.63962 19.1629 3.35419 18.0625 3.24169V1.0625H15.9375V3.24062C13.318 3.50724 10.8904 4.73569 9.12408 6.68842C7.35779 8.64115 6.37829 11.1795 6.375 13.8125V17.6226L3.49881 20.4988C3.29954 20.698 3.18756 20.9682 3.1875 21.25V24.4375C3.1875 24.7193 3.29944 24.9895 3.4987 25.1888C3.69796 25.3881 3.96821 25.5 4.25 25.5H11.6875V26.5625C11.6875 27.9715 12.2472 29.3227 13.2435 30.319C14.2398 31.3153 15.591 31.875 17 31.875C18.409 31.875 19.7602 31.3153 20.7565 30.319C21.7528 29.3227 22.3125 27.9715 22.3125 26.5625V25.5H29.75C30.0318 25.5 30.302 25.3881 30.5013 25.1888C30.7006 24.9895 30.8125 24.7193 30.8125 24.4375V21.25C30.8124 20.9682 30.7005 20.698 30.5012 20.4988L27.625 17.6226ZM20.1875 26.5625C20.1875 27.4079 19.8517 28.2186 19.2539 28.8164C18.6561 29.4142 17.8454 29.75 17 29.75C16.1546 29.75 15.3439 29.4142 14.7461 28.8164C14.1483 28.2186 13.8125 27.4079 13.8125 26.5625V25.5H20.1875V26.5625Z" fill="url(#paint0_linear_727_21465)" fill-opacity="0.2" style="mix-blend-mode:hard-light"/>
<path d="M27.625 12.75C29.9722 12.75 31.875 10.8472 31.875 8.5C31.875 6.15279 29.9722 4.25 27.625 4.25C25.2778 4.25 23.375 6.15279 23.375 8.5C23.375 10.8472 25.2778 12.75 27.625 12.75Z" fill="#FC0A0A"/>
<defs>
<linearGradient id="paint0_linear_727_21465" x1="17" y1="1.0625" x2="17" y2="31.875" gradientUnits="userSpaceOnUse">
<stop stop-color="white"/>
<stop offset="1" stop-color="white" stop-opacity="0"/>
</linearGradient>
</defs>
</svg>
